<?xml version="1.0" encoding="UTF-8" standalone="no"?>
<!-- Created with Inkscape (http://www.inkscape.org/) -->

<svg
   xmlns:dc="http://purl.org/dc/elements/1.1/"
   xmlns:cc="http://creativecommons.org/ns#"
   xmlns:rdf="http://www.w3.org/1999/02/22-rdf-syntax-ns#"
   xmlns:svg="http://www.w3.org/2000/svg"
   xmlns="http://www.w3.org/2000/svg"
   xmlns:sodipodi="http://sodipodi.sourceforge.net/DTD/sodipodi-0.dtd"
   xmlns:inkscape="http://www.inkscape.org/namespaces/inkscape"
   width="400"
   height="200"
   viewBox="0 0 400 200"
   id="svg3739"
   version="1.1"
   inkscape:version="0.91 r13725"
   sodipodi:docname="绘图.svg">
  <defs
     id="defs3741">
    <style
       id="style3807"
       type="text/css"><![CDATA[
@font-face { font-family: ifont; src: url("//at.alicdn.com/t/font_1442373896_4754455.eot?#iefix") format("embedded-opentype"), url("//at.alicdn.com/t/font_1442373896_4754455.woff") format("woff"), url("//at.alicdn.com/t/font_1442373896_4754455.ttf") format("truetype"), url("//at.alicdn.com/t/font_1442373896_4754455.svg#ifont") format("svg"); }

]]></style>
    <style
       id="style3900"
       type="text/css"><![CDATA[
@font-face { font-family: ifont; src: url("//at.alicdn.com/t/font_1442373896_4754455.eot?#iefix") format("embedded-opentype"), url("//at.alicdn.com/t/font_1442373896_4754455.woff") format("woff"), url("//at.alicdn.com/t/font_1442373896_4754455.ttf") format("truetype"), url("//at.alicdn.com/t/font_1442373896_4754455.svg#ifont") format("svg"); }

]]></style>
    <style
       id="style3993"
       type="text/css"><![CDATA[
@font-face { font-family: ifont; src: url("//at.alicdn.com/t/font_1442373896_4754455.eot?#iefix") format("embedded-opentype"), url("//at.alicdn.com/t/font_1442373896_4754455.woff") format("woff"), url("//at.alicdn.com/t/font_1442373896_4754455.ttf") format("truetype"), url("//at.alicdn.com/t/font_1442373896_4754455.svg#ifont") format("svg"); }

]]></style>
    <style
       id="style4067"
       type="text/css"><![CDATA[
@font-face { font-family: ifont; src: url("//at.alicdn.com/t/font_1442373896_4754455.eot?#iefix") format("embedded-opentype"), url("//at.alicdn.com/t/font_1442373896_4754455.woff") format("woff"), url("//at.alicdn.com/t/font_1442373896_4754455.ttf") format("truetype"), url("//at.alicdn.com/t/font_1442373896_4754455.svg#ifont") format("svg"); }

]]></style>
  </defs>
  <sodipodi:namedview
     id="base"
     pagecolor="#ffffff"
     bordercolor="#666666"
     borderopacity="1.0"
     inkscape:pageopacity="0.0"
     inkscape:pageshadow="2"
     inkscape:zoom="1.979899"
     inkscape:cx="163.3741"
     inkscape:cy="122.95867"
     inkscape:document-units="px"
     inkscape:current-layer="layer1"
     showgrid="false"
     units="px"
     showguides="true"
     inkscape:guide-bbox="true"
     inkscape:window-width="1366"
     inkscape:window-height="744"
     inkscape:window-x="0"
     inkscape:window-y="24"
     inkscape:window-maximized="1">
    <sodipodi:guide
       position="200.0102,166.17009"
       orientation="1,0"
       id="guide3747" />
  </sodipodi:namedview>
  <metadata
     id="metadata3744">
    <rdf:RDF>
      <cc:Work
         rdf:about="">
        <dc:format>image/svg+xml</dc:format>
        <dc:type
           rdf:resource="http://purl.org/dc/dcmitype/StillImage" />
        <dc:title></dc:title>
      </cc:Work>
    </rdf:RDF>
  </metadata>
  <g
     inkscape:label="Layer 1"
     inkscape:groupmode="layer"
     id="layer1"
     transform="translate(0,-852.36216)">
    <g
       id="g3995"
       class="transform-group"
       transform="translate(198.42967,852.76965)">
      <g
         id="g3997"
         transform="scale(0.1953125,0.1953125)">
        <path
           id="path3999"
           d="m 704.08084,648.78484 c -147.34821,81.16548 -237.99916,60.14653 -291.03158,21.5579 -5.17389,-4.096 -10.24,-8.40758 -15.19831,-13.15032 -41.33991,-36.64056 -64.90369,-89.30562 -64.67369,-144.54568 -0.61604,-55.32096 23.01622,-108.13905 64.67369,-144.54569 41.40312,-38.92954 96.34544,-60.19504 153.16884,-59.28421 38.25808,-0.38352 75.97149,9.08194 109.51411,27.48632 32.51781,17.72058 59.74642,43.75886 78.90189,75.45263 L 961.48211,290.70821 C 947.03832,250.39495 912.76126,185.61347 831.16463,119.21516 c 0,0 89.89642,35.7861 161.68421,154.5701 L 1021.8442,258.048 C 973.63778,178.81703 905.12558,113.91466 823.40379,70.063158 740.17595,24.060605 646.54497,0.161134 551.45095,0.646737 402.27032,0.646737 274.57572,50.768842 168.36716,151.01305 62.1586,251.25726 9.054316,371.72997 9.054316,512.43116 7.630686,622.65792 44.938121,729.88821 114.47242,815.42737 l 9.05432,10.77895 c 0,0 17.46189,20.26442 22.42021,25.00715 312.05052,297.17563 691.25389,109.40632 691.25389,109.40632 l 109.51411,-52.70905 84.50695,-40.74442 0,-426.73853 -327.14106,208.35705 z M 973.55453,544.44463 c -8.62316,6.79074 -19.07874,14.87495 -31.36674,24.03705 -12.288,9.16211 -26.19284,19.07874 -41.60674,29.85769 -15.41389,10.77895 -32.33684,21.55789 -50.44547,33.63031 -18.10863,12.07242 -37.51074,23.39032 -57.55958,35.46274 -20.04884,12.07242 -41.49895,23.92926 -63.27242,35.67832 -21.77347,11.74905 -43.97811,23.28252 -66.39832,33.95368 l -33.63031,16.16842 -17.89306,7.97642 -18.432,6.68295 c -24.36082,7.83196 -49.87329,11.4766 -75.45263,10.77895 -23.97501,-1.04875 -47.56385,-6.41648 -69.632,-15.84506 -19.35675,-8.2683 -37.49011,-19.14831 -53.89473,-32.33684 -13.64016,-10.91921 -26.16862,-23.15882 -37.40295,-36.54063 -8.66193,-10.22839 -16.62066,-21.0321 -23.82148,-32.33684 -6.33633,-9.61612 -11.92201,-19.70635 -16.70736,-30.18105 6.65257,9.25934 13.8513,18.11379 21.55789,26.51621 19.63929,22.14401 42.1089,41.6056 66.82947,57.88294 16.18293,10.43338 33.55175,18.90068 51.73895,25.22274 19.93092,6.70314 40.84429,10.01867 61.87116,9.80884 22.39355,-0.21991 44.58832,-4.22882 65.64379,-11.85684 l 16.16842,-6.144 15.95284,-7.32968 33.41474,-16.59958 c 22.20463,-10.77895 45.056,-21.5579 66.29053,-33.09137 21.23452,-11.53347 43.11579,-21.5579 63.38021,-32.87579 l 30.18105,-16.16842 c 10.02442,-5.06611 19.72547,-10.13221 28.99537,-15.30611 l 52.92463,-28.56421 109.51411,-59.49979 c 0,0 -10.3478,7.32969 -27.48632,21.01895 l 0.53895,0 z"
           inkscape:connector-curvature="0"
           style="fill:#ffffff" />
      </g>
    </g>
    <g
       id="g4069"
       class="transform-group"
       transform="translate(-8.7640812,853.37308)">
      <g
         id="g4071"
         transform="scale(0.1953125,0.1953125)">
        <path
           id="path4073"
           d="m 718.50667,977.28 -30.08,7.36 c -10.02667,1.92 -20.05334,3.62667 -29.97334,5.22667 -9.92,1.6 -19.73333,2.24 -29.33333,3.41333 -9.6,1.17333 -19.09333,1.49333 -28.48,1.92 -9.38667,0.42667 -18.34667,0.64 -27.2,0 -8.85333,-0.64 -17.38667,0 -25.70667,0 l -24,-1.70667 c -15.36,-0.74666 -29.22666,-2.98666 -41.6,-4.48 -12.37333,-1.49333 -23.04,-3.52 -32,-5.22666 C 432.64,980.37333 422.72,978.13333 422.72,978.13333 c 0,0 10.66667,0 27.94667,-0.64 8.85333,0 19.62666,0 32,-0.64 12.37333,-0.64 26.13333,-0.53333 41.17333,-1.6 l 23.36,-1.38666 24.96,-2.13334 c 8.53333,-0.64 17.28,-1.6 26.13333,-2.88 8.85334,-1.28 18.02667,-1.81333 27.2,-3.62666 l 27.84,-4.8 c 9.28,-2.13334 18.66667,-4.16 28.16,-6.08 L 709.76,946.88 c 9.28,-3.09333 18.66667,-5.86667 27.84,-9.17333 18.30197,-6.27831 36.12629,-13.87144 53.33333,-22.72 16.71264,-8.38059 32.79104,-17.97053 48.10667,-28.69334 14.31211,-10.16835 27.92501,-21.28672 40.74667,-33.28 11.34944,-11.05644 22.03477,-22.77469 32,-35.09333 8.20576,-10.6959 15.86016,-21.80369 22.93333,-33.28 6.08,-10.66667 10.66667,-19.84 14.82667,-27.73333 1.49333,-3.09334 2.66666,-5.86667 3.84,-8.53334 8.41706,-30.20799 12.58165,-61.44196 12.37333,-92.8 0,-68.19555 -21.83115,-123.44888 -65.49333,-165.76 -43.66219,-42.31111 -111.92886,-74.31111 -204.8,-96 -9.81334,-2.41778 -23.36,-5.47555 -40.64,-9.17333 C 582.22219,369.42222 545.92,349.93778 545.92,326.18667 c -0.16971,-14.33097 7.20203,-27.69736 19.41333,-35.2 15.19659,-9.44403 32.90048,-14.05599 50.77334,-13.22667 30.92693,1.27873 61.3153,8.52268 89.49333,21.33333 40.68448,17.6245 79.61291,39.05304 116.26667,64 L 935.36,79.146667 C 880.41685,53.738411 822.66603,34.905835 763.30667,23.04 700.09355,10.40208 635.77035,4.148448 571.30667,4.373333 c -134.11552,0 -242.84445,31.36 -326.18667,94.08 -83.34222,62.719997 -125.19112,143.573337 -125.54667,242.559997 0,70.61334 20.44445,127.50222 61.33334,170.66667 40.88888,43.16445 106.24,75.59111 196.05333,97.28 10.45333,2.41778 24.92448,5.47555 43.41333,9.17333 54.75552,10.95112 82.13334,28.30222 82.13334,52.05334 0.64405,15.65615 -6.65728,30.57977 -19.41334,39.68 -16.82176,10.51653 -36.52362,15.47931 -56.32,14.18666 C 389.1072,722.3249 352.1287,713.34285 317.86667,697.6 268.72912,676.27348 221.7572,650.26926 177.6,619.94667 L 54.933333,911.25333 C 191.67149,979.24494 342.33061,1014.5545 495.04,1014.4 c 92.44448,0 172.83552,-14.2222 241.17333,-42.66667 L 718.50667,977.28 Z M 497.6,390.61333 c -9.72907,-7.6317 -18.00352,-16.95396 -24.42667,-27.52 -7.82336,-12.63195 -12.02944,-27.16888 -12.16,-42.02666 0.34198,-15.70771 4.4383,-31.10544 11.94667,-44.90667 l 5.54667,-9.49333 c 2.34666,-3.41334 4.69333,-6.93334 7.25333,-10.02667 4.98592,-6.2126 10.59765,-11.89584 16.74667,-16.96 12.27456,-9.80003 26.38101,-17.05269 41.49333,-21.33333 14.07648,-4.23889 28.71307,-6.32471 43.41333,-6.18667 13.30326,0.0474 26.56566,1.4773 39.57334,4.26667 11.45866,2.30977 22.69941,5.59277 33.6,9.81333 16.16906,6.02682 31.53728,14.01542 45.76,23.78667 5.38709,3.61921 10.48672,7.64896 15.25333,12.05333 0,0 -6.61333,-2.66667 -18.02667,-6.4 -15.64725,-5.00709 -31.61173,-8.96258 -47.78666,-11.84 -22.08064,-4.08312 -44.59979,-5.26644 -66.98667,-3.52 -23.904,1.29531 -46.85259,9.81267 -65.81333,24.42667 -4.56587,3.65433 -8.74752,7.76445 -12.48,12.26666 -1.92,2.24 -3.30667,4.37334 -5.01334,6.50667 l -5.12,8 c -5.66005,9.46085 -9.29237,19.99463 -10.66666,30.93333 -0.8447,10.20754 0.84064,20.46589 4.90666,29.86667 4.1472,9.21086 9.56918,17.79268 16.10667,25.49333 10.64096,12.28189 22.58688,23.36937 35.62667,33.06667 9.6,7.25333 15.57333,10.66667 15.57333,10.66667 C 555.55691,420.21021 549.31381,418.35512 543.25333,416 526.74475,410.1988 511.31637,401.69156 497.6,390.82667 l 0,-0.21334 z"
           inkscape:connector-curvature="0"
           style="fill:#ffffff" />
      </g>
    </g>
  </g>
</svg>
